Coordinates
version=1
nRows=38
nColumns=12
inDegrees=yes

Units are S.I. units (second, meters, Newtons, ...)
Angles are in degrees

endheader
time	SC_y	SC_z	SC_x	AC_y	AC_z	AC_x	GH_y	GH_z	GH_yy	EL_x	PS_y
       0.0              -44.95         -1.454          54.51          35.83          5.977         -10.74         -162.8          19.56         -120.0          9.768          110.7
   0.01318              -44.94         -1.452          54.51          35.83          5.974         -10.74         -162.8          19.56         -120.0          9.786          110.6
   0.02636              -44.94         -1.449          54.51          35.83           5.97         -10.74         -162.7          19.55         -119.9          9.806          110.6
   0.03954              -44.94         -1.445           54.5          35.84          5.966         -10.74         -162.7          19.55         -119.9          9.828          110.6
   0.05273              -44.93         -1.442           54.5          35.84          5.961         -10.74         -162.7          19.54         -119.8           9.85          110.6
   0.06591              -44.93         -1.439          54.49          35.85          5.956         -10.73         -162.7          19.53         -119.8          9.874          110.6
   0.07909              -44.92         -1.435          54.49          35.85          5.951         -10.73         -162.6          19.53         -119.7            9.9          110.5
   0.09227              -44.92         -1.431          54.48          35.86          5.946         -10.73         -162.6          19.52         -119.7          9.927          110.5
    0.1055              -44.91         -1.427          54.48          35.87           5.94         -10.73         -162.6          19.51         -119.6          9.957          110.5
    0.1186              -44.91         -1.422          54.47          35.87          5.934         -10.73         -162.5          19.51         -119.5          9.988          110.5
    0.1318               -44.9         -1.417          54.47          35.88          5.927         -10.72         -162.5           19.5         -119.4          10.02          110.4
     0.145               -44.9         -1.412          54.46          35.89           5.92         -10.72         -162.4          19.49         -119.4          10.06          110.4
    0.1582              -44.89         -1.406          54.45           35.9          5.912         -10.72         -162.4          19.48         -119.3           10.1          110.4
    0.1714              -44.88           -1.4          54.44          35.91          5.904         -10.72         -162.3          19.47         -119.2          10.14          110.4
    0.1845              -44.87         -1.393          54.43          35.92          5.895         -10.71         -162.3          19.46         -119.1          10.19          110.3
    0.1977              -44.86         -1.385          54.42          35.93          5.885         -10.71         -162.2          19.45         -119.0          10.24          110.3
    0.2109              -44.86         -1.378          54.41          35.94          5.875         -10.71         -162.1          19.43         -118.9          10.29          110.2
    0.2241              -44.84         -1.369           54.4          35.95          5.863          -10.7         -162.1          19.42         -118.7          10.35          110.2
    0.2373              -44.83         -1.359          54.39          35.97           5.85          -10.7         -162.0           19.4         -118.6          10.41          110.1
    0.2504              -44.82         -1.349          54.38          35.98          5.836          -10.7         -161.9          19.39         -118.4          10.48          110.1
    0.2636              -44.81         -1.338          54.36           36.0          5.821         -10.69         -161.8          19.37         -118.3          10.56          110.0
    0.2768              -44.79         -1.325          54.35          36.02          5.804         -10.69         -161.7          19.35         -118.1          10.65          109.9
      0.29              -44.77         -1.311          54.33          36.04          5.786         -10.68         -161.6          19.32         -117.9          10.74          109.9
    0.3032              -44.76         -1.296          54.31          36.06          5.765         -10.67         -161.4           19.3         -117.6          10.85          109.8
    0.3164              -44.74         -1.279          54.29          36.08          5.742         -10.67         -161.3          19.27         -117.4          10.96          109.7
    0.3295              -44.71          -1.26          54.26          36.11          5.717         -10.66         -161.1          19.24         -117.1          11.09          109.6
    0.3427              -44.69         -1.239          54.23          36.14          5.688         -10.65         -161.0           19.2         -116.8          11.24          109.5
    0.3559              -44.66         -1.215           54.2          36.18          5.656         -10.64         -160.8          19.16         -116.4           11.4          109.3
    0.3691              -44.63         -1.188          54.17          36.22           5.62         -10.63         -160.5          19.12         -116.0          11.58          109.2
    0.3823              -44.59         -1.157          54.13          36.27          5.579         -10.61         -160.3          19.07         -115.6          11.79          109.0
    0.3954              -44.55         -1.122          54.08          36.32          5.532          -10.6         -160.0          19.01         -115.1          12.03          108.8
    0.4086               -44.5         -1.082          54.03          36.38          5.478         -10.58         -159.6          18.94         -114.5          12.31          108.6
    0.4218              -44.44         -1.035          53.97          36.45          5.415         -10.56         -159.2          18.87         -113.8          12.62          108.4
     0.435              -44.37        -0.9813           53.9          36.53          5.343         -10.54         -158.8          18.78         -113.0          12.99          108.1
    0.4482               -44.3        -0.9182          53.82          36.62          5.258         -10.51         -158.2          18.67         -112.0          13.42          107.7
    0.4613              -44.21        -0.8437          53.72          36.73          5.158         -10.48         -157.6          18.55         -110.9          13.93          107.3
    0.4745               -44.1        -0.7553          53.61          36.86           5.04         -10.44         -156.9           18.4         -109.6          14.53          106.8
    0.4877              -43.97        -0.6492          53.47          37.02          4.897          -10.4         -156.0          18.22         -108.0          15.26          106.2
